<svg xmlns="http://www.w3.org/2000/svg" viewBox="0 0 96 96" fill="none" stroke="currentColor" stroke-width="5">
<path d="M12 61V45H7v-1l6-5-1-10h6v5l7-5h0l18 15v1h-6v16H12z"/>
<path d="M49 64c10-14 14-24 11-33-7-17-23-12-26-11-2 2 1-5 4-8 5-4 12-7 21-6 19 1 28 13 31 21 3 9 1 32 1 38M94 78c-5 0-10-3-12-8-2 5-6 8-11 8s-10-3-12-8c-2 5-6 8-11 8s-9-3-12-8c-2 5-6 8-11 8s-9-3-11-8c-3 5-7 8-12 8M94 91c-5 0-10-3-12-8-2 5-6 8-11 8s-10-3-12-8c-2 5-6 8-11 8s-9-3-12-8c-2 5-6 8-11 8s-9-3-11-8c-3 5-7 8-12 8"/>
</svg>