<svg xmlns="http://www.w3.org/2000/svg" viewBox="0 0 96 96" fill="none" stroke="currentColor" stroke-width="5">
    <path d="M93 80c-5 0-10-3-12-7-2 4-6 7-11 7s-9-3-11-7c-2 4-7 7-11 7-5 0-10-3-12-7-2 4-6 7-11 7s-9-3-11-7c-2 4-7 7-11 7M92 92c-4 0-9-3-11-7-2 4-6 7-11 7s-9-3-11-7c-2 4-7 7-12 7-4 0-9-3-11-7-2 4-6 7-11 7s-9-3-11-7c-2 4-7 7-11 7M10 64l24-43 24 44M53 54l11-11 11 15 4-4 10 14M75 13a8 8 0 110 15 8 8 0 010-15zM75 1v6M61 7l4 4M56 20h5M61 33l4-3M74 39v-5M88 34l-4-4M93 20h-5M88 7l-4 4"/>
</svg>