<svg xmlns="http://www.w3.org/2000/svg" viewBox="0 0 96 96" fill="none" stroke="currentColor" stroke-width="5">
<path d="M55 44c5 0 12 4 18 4 4 0 4-3 3-5L58 33l20-17c2-4-14-3-23-3-16 0-34 3-45 18-16 25-4 49 24 50 7 4 9 11 20 11 2-2 0-11-6-17 8-4 9-15 8-21-6 4-12 6-18 14-8 6-13-11-12-14 4-8 22-10 29-10z"/>
<path d="M50 13C48 9 37 3 32 3s5 6-5 5c0 0-14-7-10-1 2 3 3 6-4 6-16 0 0 4-2 7-3 3-8 8-5 18M34 30l-20 7 1 2c13 8 11 4 23-5M88 3a5 5 0 00-4 7l3 2a5 5 0 004-7l-3-2zM87 12v4c-1 3-1 5 4 8l2 7a8 8 0 01-14 4 8 8 0 01-1-9M80 24l-7 6"/>
</svg>