<svg xmlns="http://www.w3.org/2000/svg" viewBox="0 0 96 96" fill="none" stroke="currentColor" >
<path d="M30 86l-1-7h-2l-11-1-4-4-2-1c-3-2-1-8 4-4l2 2 3 1 9 1h0v-6L10 57c-1-1 3-7 2-8-1 0-4-1-7-4a3 3 0 010-5c1-1 4 1 5 2l7 3 1 1c3 1 0 6 0 9 1 1 16 8 16 10l2 14h1l2-2 2-10c0-3 0-6-5-8-6-3-4-9-3-13h0c-3 0-11-3-13-6l-2-11h0c-2-4 4-6 6-1v1a80 80 0 001 7l5-3 1-2 1-2c2-5 6-2 5 1l-1 2-1 4-3 3a27 27 0 005 1l6-4 4-1 3-4c1-1 3-2 5-1 2 0 1 2 0 3-1 3-3 4-4 5l-5 3c-1 0-9 11-6 12 7 4 8 8 8 11h8v-2c-7-6-7-10-5-13 0-2 3-4 6-6l7-4c2 0 4 1 3 2l-7 6-4 4-1 1c0 1 0 2 3 4l3-3c3-2 2-1 5-1 9 2 4 7 2 6h-4l-2 2c1 2 0 6-1 8 0 2-8 2-11 3l-3 1-2 8-1 6m-33 6c7-3 16-5 27-5s20 2 27 5M74 13c3-1 4-10 7-9 4 1 0 10 1 12 2 1 11 0 11 4 0 3-9 2-10 4-2 2 2 10-1 11s-5-8-8-8c-2-1-8 5-10 3-2-3 6-8 5-10 0-3-8-7-6-10 2-2 9 4 11 3z"/>
</svg>