<svg xmlns="http://www.w3.org/2000/svg" viewBox="0 0 96 96" fill="none" stroke="currentColor" stroke-width="5">
<path d="M54 39v12c1 1 22 16 22 19v7c0 4-9 3-9-1v-4l-7-7-6 6v4c0 5-9 6-9 2v-7l7-10-4-3c-12 7-18 12-18 14v6c0 5-10 5-10 0v-9c0-2 7-8 24-19V39M50 4c4 0 7 1 11 3 4-1 7-1 10 1 2 1 4 3 4 6 8 1 12 5 12 11 0 9-8 12-11 12-2 0-5 0-9-2-4 3-10 4-17 4s-13-1-17-4c-2 2-5 2-8 2-6 0-14-5-14-13 0-5 4-9 12-10 0-4 2-6 5-7h10l12-3zM94 90c-5 0-10-3-12-7-2 4-6 7-11 7s-10-3-12-7c-2 4-6 7-11 7s-9-3-12-7c-2 4-6 7-11 7s-9-3-11-7c-3 4-7 7-12 7"/>
</svg>