<svg xmlns="http://www.w3.org/2000/svg" viewBox="0 0 96 96" fill="none" stroke="currentColor" stroke-width="5">
<rect width="83" height="63" x="7" y="25" rx="1"/>
<rect width="89" height="11" x="4" y="14" rx="1"/>
<rect width="65" height="8" x="16" y="6" rx="1"/>
<path d="M30 54c-4-16 5-21 9-22 22-1 29 22 32 22 2 0 3 1 0 4 3 1 1 1 0 3-4 8-10 14-15 20-4 2-10-5-5-8M56 71c-1 1-29 14-28-3"/>
<path d="M33 62l-2 2c-3 7-6 3-6 2V51c0-2 3-1 4 1 0 2 2 2 3 2M56 47c-2 3-3 12-1 16M49 45c-2 4-3 15 0 20M41 46c-2 5-1 16 1 20"/>
</svg>